<svg width="477" height="426" viewBox="0 0 477 426" fill="none" xmlns="http://www.w3.org/2000/svg">
<mask id="mask0_12_4763" style="mask-type:luminance" maskUnits="userSpaceOnUse" x="127" y="100" width="223" height="99">
<path d="M127.513 100.368H349.795V198.312H127.513V100.368Z" fill="white"/>
</mask>
<g mask="url(#mask0_12_4763)">
<path fill-rule="evenodd" clip-rule="evenodd" d="M158.414 179.52C163.333 179.52 167.313 183.505 167.313 188.419C167.313 193.338 163.333 197.318 158.414 197.318C153.5 197.318 149.515 193.338 149.515 188.419C149.515 183.505 153.5 179.52 158.414 179.52ZM135.433 186.481C134.996 188.543 132.969 189.865 130.902 189.428C128.835 188.991 127.518 186.963 127.955 184.896C132.099 165.334 141.296 147.641 154.116 133.256C167.034 118.762 183.645 107.612 202.481 101.282C204.479 100.611 206.645 101.69 207.316 103.692C207.982 105.69 206.904 107.851 204.906 108.522C187.372 114.415 171.889 124.814 159.83 138.339C147.875 151.76 139.294 168.256 135.433 186.481ZM270.196 107.906C268.178 107.28 267.055 105.133 267.681 103.121C268.312 101.103 270.454 99.9804 272.471 100.607C291.795 106.693 308.872 117.823 322.159 132.446C335.361 146.98 344.836 164.967 349.055 184.896C349.492 186.958 348.17 188.991 346.108 189.428C344.041 189.865 342.014 188.543 341.577 186.481C337.641 167.908 328.812 151.139 316.504 137.594C304.112 123.95 288.192 113.575 270.196 107.906Z" fill="#A97555"/>
</g>
<mask id="mask1_12_4763" style="mask-type:luminance" maskUnits="userSpaceOnUse" x="175" y="59" width="154" height="164">
<path d="M175.536 59.3261H328.176V222.48H175.536V59.3261Z" fill="white"/>
</mask>
<g mask="url(#mask1_12_4763)">
<path fill-rule="evenodd" clip-rule="evenodd" d="M246.778 129.102C276.735 130.061 299.829 136.128 299.829 143.482C300.679 149.231 301.116 154.552 301.191 159.491H307.476V159.511C309.836 159.486 327.376 160.063 327.187 183.167C327.003 206.073 307.799 206.501 304.932 206.436V206.451H283.999C280.297 209.854 276.258 212.508 272.168 214.585C293.504 194.913 292.436 163.426 292.431 163.307C292.391 161.623 290.995 160.291 289.31 160.331C287.626 160.366 286.289 161.767 286.329 163.451C286.334 163.59 287.939 210.823 246.147 221.655C241.486 222.038 238.505 221.859 238.505 221.859C238.505 221.859 164.918 226.341 177.181 143.482C177.181 136.193 199.898 130.161 229.492 129.127C226.178 125.565 223.152 125.242 219.952 118.877C214.705 108.442 225.338 95.6924 232.667 84.473C239.996 73.2535 231.921 59.346 231.921 59.346C254.653 77.2931 240.969 96.4377 237.004 101.675C222.376 120.993 238.699 120.829 236.334 142.359C235.265 139.204 234.247 136.739 233.258 134.772C206.024 135.239 184.733 139.273 184.733 144.187C184.733 149.415 208.807 153.648 238.505 153.648C268.203 153.648 292.277 149.415 292.277 144.187C292.277 139.417 272.208 135.472 246.117 134.821C245.516 137.604 244.393 140.54 242.271 143.556C242.271 143.556 242.048 132.342 239.881 125.982C237.71 119.627 236.662 112.149 243.245 105.789C249.824 99.4339 252.517 93.6006 250.122 82.3811C268.844 95.3694 255.776 106.639 248.408 117.59C246.495 120.432 246.957 124.417 246.778 129.102ZM300.585 171.749C299.491 180.743 297.007 188.131 293.638 194.193H304.932L305.29 194.218C305.32 194.218 314.89 194.849 314.984 183.073C315.078 171.312 307.759 171.724 307.74 171.724L307.476 171.749H300.585ZM182.144 161.464C182.125 159.779 183.476 158.393 185.16 158.373C186.845 158.353 188.226 159.705 188.246 161.389C188.246 161.513 188.529 204.836 230.033 208.478C231.718 208.627 232.965 210.108 232.821 211.792C232.677 213.477 231.191 214.729 229.507 214.58C182.462 210.451 182.149 161.603 182.144 161.464Z" fill="#F9EBC4"/>
</g>
<path d="M161.831 296.986C161.016 297.94 159.645 298.556 157.916 298.556C155.173 298.556 153.047 296.568 153.047 293.428C153.047 290.765 154.597 289.195 157.161 289.195C159.148 289.195 160.758 289.87 161.652 291.083V288.38C160.639 287.823 159.287 287.485 157.697 287.485C154.06 287.485 151.635 290.01 151.635 293.965C151.635 297.84 154.06 300.285 157.777 300.285C159.526 300.285 160.818 300.046 161.831 299.589V296.986Z" fill="#F9EBC4"/>
<path d="M174.958 300.285C171.321 300.285 168.896 297.84 168.896 293.965C168.896 290.109 171.321 287.485 174.958 287.485C178.595 287.485 181.059 290.01 181.059 293.965C181.059 297.761 178.595 300.285 174.958 300.285ZM175.256 298.635C178.058 298.635 179.609 297.105 179.609 294.541C179.609 291.242 177.462 289.175 174.421 289.175C171.857 289.175 170.307 290.844 170.307 293.428C170.307 296.608 172.434 298.635 175.256 298.635Z" fill="#F9EBC4"/>
<path d="M197.659 289.354V287.764H189.232V300.007H190.623V294.939H197.301V293.468H190.623V289.354H197.659Z" fill="#F9EBC4"/>
<path d="M213.659 289.354V287.764H205.232V300.007H206.623V294.939H213.301V293.468H206.623V289.354H213.659Z" fill="#F9EBC4"/>
<path d="M229.122 289.354V287.764H221.231V300.007H229.122V298.417H222.623V294.481H228.764V293.011H222.623V289.354H229.122Z" fill="#F9EBC4"/>
<path d="M245.388 289.354V287.764H237.497V300.007H245.388V298.417H238.889V294.481H245.03V293.011H238.889V289.354H245.388Z" fill="#F9EBC4"/>
<path d="M269.239 296.449C269.239 297.999 267.669 298.516 266 298.516C263.793 298.516 261.985 297.84 261.031 296.727V299.45C261.985 299.987 263.535 300.285 265.483 300.285C268.623 300.285 270.531 298.675 270.531 296.211C270.531 293.945 268.663 293.388 265.622 292.991C263.634 292.752 262.263 292.454 262.263 291.282C262.263 289.97 263.734 289.254 265.562 289.254C267.55 289.254 269.14 289.93 270.094 291.043V288.32C269.14 287.784 267.808 287.485 266.099 287.485C263.078 287.485 260.971 288.837 260.971 291.441C260.971 293.527 262.521 294.263 265.622 294.66C267.768 294.939 269.239 295.117 269.239 296.449Z" fill="#F9EBC4"/>
<path d="M287.071 287.764V292.752H280.015V287.764H278.624V300.007H280.015V294.342H287.071V300.007H288.462V287.764H287.071Z" fill="#F9EBC4"/>
<path d="M302.707 300.285C299.069 300.285 296.645 297.84 296.645 293.965C296.645 290.109 299.069 287.485 302.707 287.485C306.344 287.485 308.808 290.01 308.808 293.965C308.808 297.761 306.344 300.285 302.707 300.285ZM303.005 298.635C305.807 298.635 307.357 297.105 307.357 294.541C307.357 291.242 305.211 289.175 302.17 289.175C299.606 289.175 298.056 290.844 298.056 293.428C298.056 296.608 300.182 298.635 303.005 298.635Z" fill="#F9EBC4"/>
<path d="M321.155 287.764H316.981V300.007H318.372V296.35C318.929 296.608 319.704 296.847 320.916 296.847C323.579 296.847 325.686 294.799 325.686 291.838C325.686 289.354 324.076 287.764 321.155 287.764ZM321.015 295.217C319.803 295.217 318.988 295.018 318.372 294.76V289.354H320.976C323.559 289.354 324.275 290.467 324.275 291.898C324.275 294.144 323.063 295.217 321.015 295.217Z" fill="#F9EBC4"/>
<path d="M133.938 293.921C134.196 294.989 134.509 296.122 135.205 297.24C135.697 298.025 136.313 298.72 137.023 299.287C137.128 299.371 137.103 299.54 136.974 299.59C134.678 300.445 131.672 299.148 129.908 296.395C128.999 294.984 128.472 293.265 128.646 291.575C128.72 290.84 128.929 290.11 129.307 289.474C129.62 288.937 130.032 288.082 130.787 288.246C131.086 288.306 131.339 288.505 131.528 288.743C132.01 289.344 132.372 290.12 132.74 290.8C133.272 291.784 133.674 292.833 133.938 293.921Z" fill="#A97555"/>
<mask id="mask2_12_4763" style="mask-type:luminance" maskUnits="userSpaceOnUse" x="137" y="288" width="11" height="13">
<path d="M137.376 288.624H147.547V300.072H137.376V288.624Z" fill="white"/>
</mask>
<g mask="url(#mask2_12_4763)">
<path d="M146.285 288.972C146.002 288.654 145.525 288.589 145.177 288.838C144.531 289.3 143.95 289.871 143.468 290.527C142.732 291.526 142.35 292.589 142.022 293.593C141.326 295.719 140.129 297.627 138.534 299.158C138.444 299.247 138.474 299.391 138.583 299.441C140.799 300.395 143.83 299.327 145.773 296.758C147.766 294.124 147.93 290.82 146.285 288.972Z" fill="#F9EBC4"/>
</g>
<path d="M141.316 293.285C141.371 293.141 141.426 292.997 141.47 292.847C142.076 290.994 143.319 289.335 144.968 288.286C145.083 288.212 145.078 288.043 144.953 287.983C142.737 286.86 140.059 287.938 138.37 289.523C136.447 291.337 135.085 294.502 136.184 297.086C136.293 297.339 136.422 297.588 136.576 297.816C137.098 298.586 137.982 299.053 138.728 298.268C139.031 297.95 139.185 297.568 139.383 297.185C139.622 296.733 139.855 296.281 140.084 295.824C140.501 294.999 140.978 294.154 141.316 293.285Z" fill="#A97555"/>
<mask id="mask3_12_4763" style="mask-type:luminance" maskUnits="userSpaceOnUse" x="131" y="286" width="8" height="12">
<path d="M131.016 286.82H138.648V297.528H131.016V286.82Z" fill="white"/>
</mask>
<g mask="url(#mask3_12_4763)">
<path d="M135.92 296.857C134.907 294.462 136 291.57 137.694 289.717C135.895 287.69 133.376 286.825 131.389 287.546C131.269 287.586 131.235 287.735 131.319 287.824C132.825 289.444 133.913 291.421 134.479 293.578C134.752 294.601 135.07 295.685 135.746 296.723C135.856 296.887 135.965 297.041 136.084 297.195C136.024 297.086 135.97 296.972 135.92 296.857Z" fill="#F9EBC4"/>
</g>
<mask id="mask4_12_4763" style="mask-type:luminance" maskUnits="userSpaceOnUse" x="340" y="287" width="10" height="14">
<path d="M340.896 287.352H349.462V300.072H340.896V287.352Z" fill="white"/>
</mask>
<g mask="url(#mask4_12_4763)">
<path d="M344.379 293.921C344.121 294.989 343.808 296.122 343.112 297.24C342.62 298.025 342.004 298.72 341.293 299.287C341.189 299.371 341.214 299.54 341.343 299.59C343.639 300.445 346.645 299.148 348.409 296.395C349.318 294.984 349.845 293.265 349.671 291.575C349.596 290.84 349.388 290.11 349.01 289.474C348.697 288.937 348.284 288.082 347.529 288.246C347.231 288.306 346.978 288.505 346.789 288.743C346.307 289.344 345.944 290.12 345.577 290.8C345.045 291.784 344.647 292.833 344.379 293.921Z" fill="#A97555"/>
</g>
<mask id="mask5_12_4763" style="mask-type:luminance" maskUnits="userSpaceOnUse" x="330" y="288" width="11" height="13">
<path d="M330.77 288.624H340.896V300.072H330.77V288.624Z" fill="white"/>
</mask>
<g mask="url(#mask5_12_4763)">
<path d="M332.032 288.972C332.315 288.654 332.792 288.589 333.14 288.838C333.786 289.3 334.367 289.871 334.849 290.527C335.584 291.526 335.967 292.589 336.295 293.593C336.991 295.719 338.188 297.627 339.783 299.158C339.872 299.247 339.843 299.391 339.733 299.441C337.517 300.395 334.486 299.327 332.544 296.758C330.551 294.124 330.387 290.82 332.032 288.972Z" fill="#F9EBC4"/>
</g>
<path d="M337.001 293.285C336.946 293.141 336.891 292.997 336.846 292.847C336.24 290.994 335.003 289.335 333.348 288.286C333.234 288.212 333.239 288.043 333.363 287.983C335.584 286.86 338.263 287.938 339.947 289.523C341.87 291.337 343.231 294.502 342.133 297.086C342.024 297.339 341.895 297.588 341.741 297.816C341.219 298.586 340.335 299.053 339.589 298.268C339.286 297.95 339.132 297.568 338.933 297.185C338.695 296.733 338.461 296.281 338.233 295.824C337.815 294.999 337.338 294.154 337.001 293.285Z" fill="#A97555"/>
<mask id="mask6_12_4763" style="mask-type:luminance" maskUnits="userSpaceOnUse" x="339" y="286" width="9" height="12">
<path d="M339.624 286.82H347.256V297.528H339.624V286.82Z" fill="white"/>
</mask>
<g mask="url(#mask6_12_4763)">
<path d="M342.397 296.857C343.41 294.462 342.317 291.57 340.623 289.717C342.421 287.69 344.941 286.825 346.928 287.546C347.047 287.586 347.082 287.735 346.998 287.824C345.492 289.444 344.409 291.421 343.838 293.578C343.564 294.601 343.246 295.685 342.57 296.723C342.461 296.887 342.352 297.041 342.238 297.195C342.292 297.086 342.347 296.972 342.397 296.857Z" fill="#F9EBC4"/>
</g>
<path d="M254.892 243.692V194.983H241.009V257.569H257.242V243.692M254.892 243.692H257.242M254.892 243.692V257.569H312.092V243.692H271.095V241.336H309.707V227.454H257.242V243.692M192.31 243.692V227.454H222.396V243.692H224.776V257.569H208.543V241.336H206.188V257.569H137.46V227.454H189.861V241.336H151.338V243.692H192.31ZM157.942 259.925H171.824V273.807H157.942V259.925ZM174.18 273.807V259.925H188.057V273.807H174.18ZM224.746 194.983H238.624V257.569H222.391V243.692H224.746V194.983ZM309.707 243.692H312.062V227.454H342.178V257.569H309.707V243.692ZM328.295 243.692V241.336H325.94V243.692H328.295Z" stroke="#F9EBC4" stroke-width="17.2311"/>
<path d="M192.313 243.679V227.441H222.404V243.679H224.789V257.571H208.551V241.334H206.206V257.571H137.458V227.441H189.869V241.334H151.351V243.679H192.313ZM157.949 259.917H171.822V273.809H157.949V259.917ZM174.187 273.809V259.917H188.06V273.809H174.187Z" fill="#483D3C"/>
<path d="M224.736 194.965H238.628V257.571H222.39V243.679H224.736V194.965Z" fill="#483D3C"/>
<path d="M257.247 257.571H241.01V194.965H254.902V243.679H257.247V257.571Z" fill="#483D3C"/>
<path d="M257.235 227.441H309.725V241.334H271.088V243.679H312.11V257.571H254.89V243.679H257.235V227.441Z" fill="#483D3C"/>
<path d="M309.707 243.679H312.053V227.441H342.183V257.571H309.707V243.679ZM328.291 243.679V241.334H325.945V243.679H328.291Z" fill="#483D3C"/>
</svg>
